<svg width="86" height="83" viewBox="0 0 86 83" fill="none" xmlns="http://www.w3.org/2000/svg">
<path d="M46.6159 27.8548C48.0307 26.9084 48.9543 26.2936 49.6688 25.906C50.2407 25.5957 50.4638 25.5561 50.4949 25.5515C50.8272 25.5714 51.1374 25.7295 51.3518 25.9881C51.3668 26.0162 51.4689 26.2216 51.5661 26.8727C51.6876 27.6863 51.7548 28.806 51.8541 30.5238L53.1308 52.596C53.2291 54.2965 53.2908 55.4035 53.2642 56.2159C53.2429 56.866 53.166 57.0783 53.1544 57.1076C52.9728 57.3868 52.6849 57.5772 52.3586 57.6339C52.3274 57.633 52.1035 57.6195 51.5036 57.3802C50.7539 57.0812 49.7713 56.5833 48.2635 55.8149L28.8088 45.902C27.3009 45.1337 26.3205 44.6314 25.6362 44.1998C25.0887 43.8544 24.9442 43.6802 24.9248 43.6554C24.7744 43.3558 24.7525 43.0074 24.8642 42.6926C24.8803 42.6657 25.0019 42.4761 25.502 42.0701C26.1272 41.5626 27.0374 40.9508 28.4379 40.014L46.6159 27.8548Z" stroke="url(#paint0_linear_8_226)" stroke-width="4.84273"/>
<ellipse cx="24.3046" cy="42.6078" rx="13.0695" ry="13.277" fill="url(#paint1_linear_8_226)"/>
<ellipse cx="51.0082" cy="24.714" rx="7.03973" ry="7.15147" fill="url(#paint2_linear_8_226)"/>
<ellipse cx="55.9688" cy="58.6006" rx="10.0992" ry="10.2595" fill="url(#paint3_linear_8_226)"/>
<path d="M58.6564 39.0261L59.1712 45.2789L63.8613 47.5007C64.8945 46.7397 67.3445 44.9478 68.8792 43.8687C70.0006 42.6771 69.2287 41.7418 68.7025 41.4231C66.4789 40.3581 61.7312 38.0929 60.5299 37.5516C59.3286 37.0104 58.7804 38.3091 58.6564 39.0261Z" fill="url(#paint4_linear_8_226)"/>
<path d="M49.1662 69.1604L57.9231 47.8485L62.7817 50.1501L52.2274 70.6106C51.9985 71.0347 51.2592 71.7219 50.1327 71.0771C49.0063 70.4324 49.019 69.5307 49.1662 69.1604Z" fill="url(#paint5_linear_8_226)"/>
<rect width="5.34514" height="2.9509" transform="matrix(0.903729 0.428105 -0.417172 0.908828 59.1542 45.1667)" fill="url(#paint6_linear_8_226)"/>
<defs>
<linearGradient id="paint0_linear_8_226" x1="55.2554" y1="44.2959" x2="23.465" y2="43.1956" gradientUnits="userSpaceOnUse">
<stop stop-color="#71787E"/>
<stop offset="1" stop-color="#474B50"/>
</linearGradient>
<linearGradient id="paint1_linear_8_226" x1="16.0704" y1="32.8195" x2="31.0713" y2="52.5082" gradientUnits="userSpaceOnUse">
<stop stop-color="#DB9FE5"/>
<stop offset="1" stop-color="#8B6092"/>
</linearGradient>
<linearGradient id="paint2_linear_8_226" x1="50.7802" y1="17.664" x2="50.7496" y2="31.9669" gradientUnits="userSpaceOnUse">
<stop stop-color="#DB9FE5"/>
<stop offset="1" stop-color="#8B6092"/>
</linearGradient>
<linearGradient id="paint3_linear_8_226" x1="55.7" y1="48.6204" x2="55.7" y2="69.1394" gradientUnits="userSpaceOnUse">
<stop stop-color="#8B6092"/>
<stop offset="1" stop-color="#BE8CC7"/>
</linearGradient>
<linearGradient id="paint4_linear_8_226" x1="59.6613" y1="37.7307" x2="64.0243" y2="47.2647" gradientUnits="userSpaceOnUse">
<stop stop-color="#F6DDA7"/>
<stop offset="1" stop-color="#BB8752"/>
</linearGradient>
<linearGradient id="paint5_linear_8_226" x1="60.3524" y1="48.9993" x2="49.9345" y2="70.9915" gradientUnits="userSpaceOnUse">
<stop stop-color="#B16C00"/>
<stop offset="1" stop-color="#8A4B05"/>
</linearGradient>
<linearGradient id="paint6_linear_8_226" x1="0.0621528" y1="1.50684" x2="5.25191" y2="1.50684" gradientUnits="userSpaceOnUse">
<stop stop-color="#CAD2D9"/>
<stop offset="1" stop-color="#8A9299"/>
</linearGradient>
</defs>
</svg>
